<?xml version="1.0" encoding="utf-8"?>
<!-- Generator: Adobe Illustrator 23.1.1, SVG Export Plug-In . SVG Version: 6.00 Build 0)  -->
<svg version="1.1" id="Capa_1" xmlns="http://www.w3.org/2000/svg" xmlns:xlink="http://www.w3.org/1999/xlink" x="0px" y="0px"
	 viewBox="0 0 512 512" style="enable-background:new 0 0 512 512;" xml:space="preserve">
<style type="text/css">
	.st0{fill:#26457D;}
	.st1{fill:#21386B;}
	.st2{fill:#E2AE84;}
	.st3{fill:#D7A379;}
	.st4{fill:#F0C69E;}
	.st5{fill:#E6BA94;}
	.st6{fill:#5E6B75;}
	.st7{fill:#DC4955;}
</style>
<g>
	<g>
		<path class="st0" d="M486.6,291.2C555.8,66.9,374.4,58.8,374.4,58.8S352.8,0,255.8,0c-93.2,0-152.1,28.7-233,16
			c-5.6-0.9-10.8,3.1-11.3,8.7C7.8,63.9-0.8,203.3,51.7,280.1L486.6,291.2z"/>
		<path class="st1" d="M100.4,249c-21.6,0-40.2,12.7-48.7,31.1c4.2,6.1,8.7,11.8,13.7,17.1l64.1,1.3L106,249.3
			C104.1,249.1,102.3,249,100.4,249L100.4,249z"/>
		<path class="st1" d="M480.2,310.4c2.3-6.6,4.4-12.9,6.3-19.2C481.2,267,459.7,249,434,249c-1.9,0-3.7,0.1-5.6,0.3l-18.7,59.4
			L480.2,310.4z"/>
		<path class="st2" d="M49.6,320.3c0,27.6,15.5,54.8,39,54.8l17.5-18.9l30.7-14.4L106,284.4c-1.8-0.2-3.7-0.3-5.6-0.3
			C76.9,284.1,56.9,299.3,49.6,320.3z"/>
		<path class="st3" d="M100.4,356.5c-23.5,0-43.5-15.1-50.8-36.2c-1.9,5.5-3,11.4-3,17.6c0,29.7,24.1,53.8,53.8,53.8
			c3.8,0,7.4-0.4,11-1.1l11-19.5l-16.2-14.9C104.2,356.4,102.3,356.5,100.4,356.5L100.4,356.5z"/>
		<path class="st2" d="M484.8,320.3c0,27.6-15.5,54.8-39,54.8l-17.5-18.9l-30.7-14.4l30.9-57.4c1.8-0.2,3.7-0.3,5.6-0.3
			C457.6,284.1,477.6,299.3,484.8,320.3L484.8,320.3z"/>
		<path class="st3" d="M434,356.5c23.5,0,43.5-15.1,50.8-36.2c1.9,5.5,3,11.4,3,17.6c0,29.7-24.1,53.8-53.8,53.8
			c-3.8,0-7.4-0.4-11-1.1l-11-19.5l16.2-14.9C430.2,356.4,432.1,356.5,434,356.5L434,356.5z"/>
		<path class="st4" d="M428.5,247.7V314v14.4c0,89.1-72.2,165-161.3,165s-161.3-75.9-161.3-165V314V167.8c0-7.4,7.9-12.1,14.4-8.6
			c29.8,16.4,105.8,44.9,229.8,3.8c4.9-1.6,10.2,0.9,12.2,5.7c6.3,15.9,23.5,49.8,61,70.3C426.5,240.8,428.5,244.1,428.5,247.7
			L428.5,247.7z"/>
		<path class="st5" d="M267.2,475.2c-89,0-161.2-72.2-161.2-161.3V349c0,89.1,72.2,161.3,161.3,161.3S428.6,438.1,428.6,349v-35.1
			C428.5,403,356.3,475.2,267.2,475.2z"/>
	</g>
	<path class="st6" d="M186.8,284.4c-8.1,0-14.8,6.6-14.8,14.7v36.2c0,8.1,6.6,14.7,14.8,14.7s14.8-6.6,14.8-14.7v-36.2
		C201.5,291,194.9,284.4,186.8,284.4z"/>
	<path class="st6" d="M344.3,284.4c-8.1,0-14.8,6.6-14.8,14.7v36.2c0,8.1,6.6,14.7,14.8,14.7s14.8-6.6,14.8-14.7v-36.2
		C359,291,352.4,284.4,344.3,284.4z"/>
	<path class="st7" d="M301.5,384.4c-6.4,0-11.8,4-13.9,9.7l0,0c-0.5,1-5.4,10.1-22.1,10.1c-16.6,0-21.5-9-22.1-10.1l0,0
		c-2.1-5.6-7.5-9.6-13.9-9.6c-8.2,0-14.8,6.6-14.8,14.7c0,2.3,0.5,4.6,1.5,6.5c4.3,10.3,19.5,27.9,49.2,27.9s44.9-17.5,49.2-27.9
		c1-2,1.5-4.2,1.5-6.5C316.3,391,309.7,384.4,301.5,384.4z"/>
</g>
</svg>
